# Blender v2.77 (sub 0) OBJ File: 'dungeon1.blend'
# www.blender.org
mtllib dungeon1INTERIORENTRANCE.mtl
o Plane.004
v 6.964953 8.172678 -10.874044
v -2.472447 7.952970 -10.541805
v 6.964953 8.172678 -14.030127
v -2.472447 7.896265 -14.447489
v 8.492808 10.182027 -8.455314
v -0.404386 9.873587 -9.896362
v 8.492808 10.405158 -16.096188
v -0.404386 9.873587 -14.617070
v 8.492808 10.563090 -7.731479
v -0.524076 10.363363 -9.019447
v 8.492808 10.563090 -16.525211
v -0.524075 10.363363 -15.311844
v 8.492808 10.689908 -7.690827
v -0.525555 10.975004 -9.424046
v 8.492808 10.689908 -16.646093
v -0.525555 10.975004 -14.956814
v 8.492808 11.582455 -6.546848
v -1.629000 12.574135 -9.179765
v 8.492808 10.442088 -17.790071
v -1.629000 12.574135 -16.126087
v 8.492808 16.300001 -6.767097
v 1.091523 14.441048 -8.416872
v 8.492808 15.159635 -18.010323
v 1.091523 14.441048 -15.363194
v 5.062113 7.998143 -10.541805
v 5.009034 10.081940 -8.516928
v 5.062113 8.326178 -14.530813
v 5.009034 10.305071 -16.952204
v 3.832253 9.682245 -6.949996
v 3.832253 9.682245 -18.193672
v 3.831245 10.775167 -7.672959
v 3.831245 10.775167 -17.559280
v 3.078278 11.760509 -6.725640
v 3.078278 11.760509 -19.137791
v 4.934703 16.281097 -8.224075
v 4.934703 16.281097 -16.898783
v 11.844548 8.733221 -11.051090
v 11.406385 8.733221 -14.207172
v 12.465442 10.182027 -8.455314
v 12.465442 10.405158 -16.096188
v 12.465442 10.563090 -7.731479
v 12.465442 10.563090 -16.525211
v 12.465442 10.689908 -7.690827
v 12.465442 10.689908 -16.646093
v 12.465442 11.582455 -6.546848
v 12.465442 10.442088 -17.790071
v 12.465442 16.300001 -6.767097
v 12.465442 15.159635 -18.010323
v 3.370674 8.172678 -10.272867
v 3.370674 8.172678 -14.661560
v 3.370674 7.362579 -10.272867
v 3.370674 7.362579 -14.661560
v 2.815639 7.362579 -10.272867
v 2.815639 7.362579 -14.661560
v 2.815639 6.599668 -10.272867
v 2.815639 6.599668 -14.661560
v 2.208268 6.599462 -10.207035
v 2.208268 6.599462 -14.595727
v 2.208268 5.929049 -10.207035
v 2.208268 5.929049 -14.595727
v 1.659087 5.929049 -10.207035
v 1.659087 5.929049 -14.595727
v 1.659087 5.367648 -10.207035
v 1.659087 5.367648 -14.595727
v 1.094435 5.367648 -10.207035
v 1.094435 5.367648 -14.595727
v 1.094435 4.839150 -10.207035
v 1.094435 4.839150 -14.595727
v 0.635346 4.839150 -10.207035
v 0.635346 4.839150 -14.595727
v 0.635346 4.212158 -10.207035
v 0.635346 4.212158 -14.595727
v -0.008106 4.212158 -10.207035
v -0.008106 4.212158 -14.595727
v -0.008106 3.392336 -10.207035
v -0.008106 3.392336 -14.595727
v -0.556733 3.392336 -10.207035
v -0.556733 3.392336 -14.595727
v -0.556733 2.536772 -10.207035
v -0.556733 2.536772 -14.595727
v -1.168772 2.536772 -10.207035
v -1.168772 2.536772 -14.595727
v -1.168772 1.830395 -10.207035
v -1.168772 1.830395 -14.595727
v -1.807106 1.830395 -10.207035
v -1.807106 1.830395 -14.595727
v -1.807106 1.023914 -10.207035
v -1.807106 1.023914 -14.595727
v -2.304930 1.023914 -10.207035
v -2.304930 1.023914 -14.595727
vt 0.8854 0.7471
vt 0.8785 0.4890
vt 0.9451 0.5615
vt 0.9537 0.7435
vt 0.0000 0.9782
vt 0.0002 0.8445
vt 0.0782 0.8192
vt 0.0782 0.9807
vt 0.5823 0.2476
vt 0.5767 0.1817
vt 0.6740 0.1357
vt 0.6624 0.2546
vt 0.6515 0.6946
vt 0.7090 0.8875
vt 0.6873 0.8891
vt 0.6014 0.7300
vt 0.2663 0.6846
vt 0.2663 0.5228
vt 0.2837 0.4928
vt 0.2837 0.7084
vt 0.7008 0.1376
vt 0.7111 0.2988
vt 0.8332 0.6349
vt 0.8544 0.4898
vt 0.8758 0.4898
vt 0.8715 0.6350
vt 0.3048 0.5067
vt 0.3048 0.6962
vt 0.3647 0.7834
vt 0.4062 0.6282
vt 0.4103 0.6281
vt 0.4062 0.7870
vt 0.7632 0.7841
vt 0.8332 0.9438
vt 0.7966 0.9764
vt 0.7111 0.8028
vt 0.3647 0.4983
vt 0.3647 0.7362
vt 0.9189 0.1900
vt 0.9407 0.3482
vt 0.8971 0.3541
vt 0.8782 0.1695
vt 0.4374 0.3349
vt 0.3304 0.4928
vt 0.3009 0.3939
vt 0.3515 0.2569
vt 0.0890 0.4928
vt 0.0595 0.3939
vt 0.7128 0.3207
vt 0.7111 0.1354
vt 0.8743 0.1382
vt 0.8782 0.2644
vt 0.0500 0.2569
vt 0.0000 0.1355
vt 0.3928 0.1392
vt 0.7497 0.4898
vt 0.8123 0.3953
vt 0.0000 0.6848
vt 0.0165 0.4928
vt 0.1829 0.5357
vt 0.1622 0.6602
vt 0.9583 0.0348
vt 0.9370 0.0000
vt 0.8151 0.6299
vt 0.7748 0.6247
vt 0.3930 0.9396
vt 0.4163 0.9416
vt 0.8682 0.7962
vt 0.8726 0.7959
vt 0.6000 0.4359
vt 0.6323 0.4423
vt 0.6943 0.5791
vt 0.6804 0.5776
vt 0.3281 0.7362
vt 0.3281 0.9932
vt 0.2681 0.9994
vt 0.2663 0.8102
vt 0.8782 0.8128
vt 0.9537 0.8641
vt 0.4121 0.4928
vt 0.4163 0.4928
vt 0.9495 1.0000
vt 0.8929 0.9650
vt 0.6952 0.4423
vt 0.7090 0.4438
vt 0.9583 0.4832
vt 0.9147 0.4890
vt 0.7150 0.0000
vt 0.8782 0.0028
vt 0.8758 0.9318
vt 0.8714 0.9321
vt 0.7929 0.4898
vt 0.8332 0.4950
vt 0.1829 0.7946
vt 0.0207 0.8192
vt 0.0007 0.0000
vt 0.3935 0.0037
vt 0.4684 0.1736
vt 0.4766 0.0214
vt 0.5861 0.0146
vt 0.6842 0.0000
vt 0.7111 0.0018
vt 0.5880 0.3061
vt 0.4374 0.2948
vt 0.9819 0.6394
vt 0.9819 0.7897
vt 0.9537 0.7897
vt 0.9537 0.6394
vt 0.1829 0.9851
vt 0.1829 0.8364
vt 0.2022 0.8364
vt 0.2022 0.9850
vt 0.9583 0.1503
vt 0.9583 0.0000
vt 0.9848 0.0000
vt 0.9848 0.1503
vt 0.4374 0.4928
vt 0.4374 0.6415
vt 0.4163 0.6437
vt 0.4163 0.4951
vt 0.9816 0.3007
vt 0.9816 0.4510
vt 0.9583 0.4510
vt 0.9583 0.3007
vt 0.2022 0.9851
vt 0.2022 0.8364
vt 0.2213 0.8364
vt 0.2213 0.9850
vt 0.4358 0.6437
vt 0.4358 0.7941
vt 0.4163 0.7941
vt 0.4163 0.6437
vt 0.4163 0.9428
vt 0.4359 0.7941
vt 0.4359 0.9428
vt 0.9816 0.4510
vt 0.9816 0.3007
vt 1.0000 0.3007
vt 1.0000 0.4510
vt 0.1659 0.9679
vt 0.1659 0.8192
vt 0.1819 0.8192
vt 0.1819 0.9679
vt 0.1446 0.8192
vt 0.1446 0.9695
vt 0.1228 0.9695
vt 0.1228 0.8192
vt 0.1006 0.8192
vt 0.1006 0.9679
vt 0.0782 0.9679
vt 0.0782 0.8192
vt 0.9537 0.6394
vt 0.9537 0.4890
vt 0.9822 0.4890
vt 0.9822 0.6394
vt 0.2213 0.9851
vt 0.2213 0.8364
vt 0.2404 0.8364
vt 0.2404 0.9850
vt 0.3281 0.8866
vt 0.3281 0.7363
vt 0.3579 0.7362
vt 0.3579 0.8866
vt 0.1446 0.9679
vt 0.1446 0.8192
vt 0.1659 0.8192
vt 0.1659 0.9679
vt 0.9583 0.3007
vt 0.9583 0.1504
vt 0.9829 0.1503
vt 0.9829 0.3007
vt 0.1006 0.9679
vt 0.1006 0.8192
vt 0.1228 0.8192
vt 0.1228 0.9679
vt 0.9537 0.9400
vt 0.9537 0.7897
vt 0.9818 0.7897
vt 0.9818 0.9400
vt 0.9818 0.9384
vt 0.9991 0.7897
vt 0.9991 0.9384
vt 0.6014 0.4510
vt 0.6014 0.8381
vt 0.4374 0.8293
vt 0.4374 0.4423
vt 0.2663 0.4928
vt 0.2663 0.8364
vt 0.2394 0.7943
vt 0.2593 0.5069
vt 0.2352 0.7925
vt 0.1935 0.5649
vt 0.2246 0.7665
vt 0.1829 0.6727
vn -0.1272 -0.4973 -0.8582
vn -0.6855 0.7280 -0.0048
vn 0.0713 -0.7453 0.6629
vn 0.0082 -0.9980 0.0631
vn -0.9714 -0.2374 -0.0000
vn 0.1243 -0.9907 0.0558
vn -0.4428 0.4496 -0.7757
vn -1.0000 -0.0024 -0.0000
vn 0.0331 0.4880 0.8722
vn -0.3856 -0.7877 -0.4804
vn -0.8231 -0.5679 0.0000
vn -0.0301 -0.7491 0.6618
vn -0.4261 0.6165 -0.6621
vn -0.5658 0.8245 0.0000
vn -0.1716 0.2134 0.9618
vn 0.1555 0.9862 -0.0565
vn -0.4318 0.9020 0.0000
vn -0.3151 0.3283 0.8905
vn 0.0794 0.1976 -0.9771
vn -0.3905 -0.6017 0.6967
vn -0.0810 -0.9675 -0.2397
vn -0.2961 0.5267 0.7968
vn 0.2168 0.3789 -0.8997
vn -0.0516 -0.9986 0.0094
vn 0.0424 -0.9698 0.2400
vn -0.0800 -0.5248 0.8474
vn 0.1559 -0.7453 -0.6482
vn 0.0000 -0.3052 0.9523
vn 0.0336 -0.7221 -0.6909
vn 0.0000 -0.9384 -0.3455
vn 0.0000 -0.7884 0.6151
vn 0.0000 0.0466 0.9989
vn 0.0000 -0.6900 -0.7238
vn 0.0000 -0.9773 0.2117
vn 0.0000 -0.0466 -0.9989
vn 0.0000 0.9949 -0.1009
vn 0.1191 -0.9928 -0.0083
vn 0.0638 -0.8341 0.5479
vn 0.0000 -0.8849 0.4658
vn 0.0000 -1.0000 0.0000
vn 1.0000 0.0000 0.0000
vn 0.0003 -1.0000 0.0000
vn 0.8659 -0.5001 0.0094
vn 0.9839 -0.0096 -0.1787
usemtl Material.004
s off
f 27/1/1 4/2/1 8/3/1 28/4/1
f 4/5/2 2/6/2 6/7/2 8/8/2
f 25/9/3 1/10/3 5/11/3 26/12/3
f 28/13/4 8/14/4 12/15/4 30/16/4
f 8/17/5 6/18/5 10/19/5 12/20/5
f 26/12/6 5/11/6 9/21/6 29/22/6
f 30/23/7 12/24/7 16/25/7 32/26/7
f 12/20/8 10/19/8 14/27/8 16/28/8
f 29/29/9 9/30/9 13/31/9 31/32/9
f 32/33/10 16/34/10 20/35/10 34/36/10
f 16/28/11 14/27/11 18/37/11 20/38/11
f 31/39/12 13/40/12 17/41/12 33/42/12
f 34/43/13 20/44/13 24/45/13 36/46/13
f 20/44/14 18/47/14 22/48/14 24/45/14
f 33/49/15 17/50/15 21/51/15 35/52/15
f 35/53/16 21/54/16 23/55/16 36/46/16
f 22/48/17 35/53/17 36/46/17 24/45/17
f 18/56/18 33/49/18 35/52/18 22/57/18
f 19/58/19 34/59/19 36/60/19 23/61/19
f 14/62/20 31/39/20 33/42/20 18/63/20
f 15/64/21 32/33/21 34/36/21 19/65/21
f 10/66/22 29/29/22 31/32/22 14/67/22
f 11/68/23 30/23/23 32/26/23 15/69/23
f 6/70/24 26/12/24 29/22/24 10/71/24
f 7/72/25 28/13/25 30/16/25 11/73/25
f 2/74/26 25/75/26 26/76/26 6/77/26
f 3/78/27 27/1/27 28/4/27 7/79/27
f 13/31/28 9/30/28 41/80/28 43/81/28
f 3/78/29 7/79/29 40/82/29 38/83/29
f 7/72/30 11/73/30 42/84/30 40/85/30
f 17/41/31 13/40/31 43/86/31 45/87/31
f 21/51/32 17/50/32 45/88/32 47/89/32
f 11/68/33 15/69/33 44/90/33 42/91/33
f 15/64/34 19/65/34 46/92/34 44/93/34
f 19/58/35 23/61/35 48/94/35 46/95/35
f 23/55/36 21/54/36 47/96/36 48/97/36
f 1/10/37 3/98/37 38/99/37 37/100/37
f 5/11/38 1/10/38 37/100/38 39/101/38
f 9/21/39 5/11/39 39/101/39 41/102/39
f 3/98/40 1/10/40 49/103/40 50/104/40
f 50/105/41 49/106/41 51/107/41 52/108/41
f 52/109/40 51/110/40 53/111/40 54/112/40
f 54/113/41 53/114/41 55/115/41 56/116/41
f 56/117/42 55/118/42 57/119/42 58/120/42
f 58/121/41 57/122/41 59/123/41 60/124/41
f 60/125/40 59/126/40 61/127/40 62/128/40
f 62/129/41 61/130/41 63/131/41 64/132/41
f 64/133/40 63/131/40 65/134/40 66/135/40
f 66/136/41 65/137/41 67/138/41 68/139/41
f 68/140/40 67/141/40 69/142/40 70/143/40
f 70/144/41 69/145/41 71/146/41 72/147/41
f 72/148/40 71/149/40 73/150/40 74/151/40
f 74/152/41 73/153/41 75/154/41 76/155/41
f 76/156/40 75/157/40 77/158/40 78/159/40
f 78/160/41 77/161/41 79/162/41 80/163/41
f 80/164/40 79/165/40 81/166/40 82/167/40
f 82/168/41 81/169/41 83/170/41 84/171/41
f 84/172/40 83/173/40 85/174/40 86/175/40
f 86/176/41 85/177/41 87/178/41 88/179/41
f 88/180/40 87/178/40 89/181/40 90/182/40
usemtl Material.005
f 48/183/41 47/184/41 45/185/41 46/186/41
f 42/187/41 45/188/41 43/189/41 40/190/41
f 40/190/43 43/189/43 41/191/43 38/192/43
f 39/193/44 37/194/44 38/192/44 41/191/44
